<?xml version="1.0" encoding="utf-8"?>
<!-- Generator: Adobe Illustrator 23.0.1, SVG Export Plug-In . SVG Version: 6.00 Build 0)  -->
<svg version="1.1" id="Layer_1" xmlns="http://www.w3.org/2000/svg" xmlns:xlink="http://www.w3.org/1999/xlink" x="0px" y="0px"
	 viewBox="0 0 41.8 99.9" style="enable-background:new 0 0 41.8 99.9;" xml:space="preserve">
<style type="text/css">
	.st0{fill:#801B28;}
</style>
<g>
	<path class="st0" d="M15.1,1.8c7.2,0,14.4,0,21.5,0c0,0.2,0.1,0.3,0.1,0.4c0,3.8,0,7.7-0.2,11.5c-0.2,5-1.1,9.9-2.6,14.7
		c-1.5,4.9-3.1,9.7-4.6,14.5c-1.5,4.6-2.6,9.3-3.2,14.2c-0.8,6.7-0.5,13.3,0.8,19.9c1.1,5.9,2.9,11.7,4.6,17.5
		c0.3,0.8,0.5,1.7,0.8,2.7c-6.9,0.3-13.7,0.5-20.6,0.8c-0.1-0.2-0.2-0.3-0.2-0.4c-1.8-6.3-3.7-12.6-5-19c-1.2-6.2-1.7-12.4-1.4-18.7
		c0.3-6.1,1.5-12,3.1-17.9c1.4-5.1,2.9-10.2,4.3-15.4c1.2-4.4,2-8.9,2.2-13.5c0.2-3.3,0.2-6.7,0.2-10C15.1,2.7,15.1,2.3,15.1,1.8z"
		/>
</g>
</svg>
