<?xml version="1.0" encoding="utf-8"?>
<!-- Generator: Adobe Illustrator 23.0.1, SVG Export Plug-In . SVG Version: 6.00 Build 0)  -->
<svg version="1.1" id="Layer_1" xmlns="http://www.w3.org/2000/svg" xmlns:xlink="http://www.w3.org/1999/xlink" x="0px" y="0px"
	 viewBox="0 0 244 222.7" style="enable-background:new 0 0 244 222.7;" xml:space="preserve">
<style type="text/css">
	.st0{fill:#BF807F;}
	.st1{fill:none;}
</style>
<g>
	<path class="st0" d="M116.9,43c7.2,0,14.4,0,21.5,0c0,0.2,0.1,0.3,0.1,0.4c0,3.8,0,7.7-0.2,11.5c-0.2,5-1.1,9.9-2.6,14.7
		c-1.5,4.9-3.1,9.7-4.6,14.5c-1.5,4.6-2.6,9.3-3.2,14.2c-0.8,6.7-0.5,13.3,0.8,19.9c1.1,5.9,2.9,11.7,4.6,17.5
		c0.3,0.8,0.5,1.7,0.8,2.7c-6.9,0.3-13.7,0.5-20.6,0.8c-0.1-0.2-0.2-0.3-0.2-0.4c-1.8-6.3-3.7-12.6-5-19c-1.2-6.2-1.7-12.4-1.4-18.7
		c0.3-6.1,1.5-12,3.1-17.9c1.4-5.1,2.9-10.2,4.3-15.4c1.2-4.4,2-8.9,2.2-13.5c0.2-3.3,0.2-6.7,0.2-10C117,43.8,116.9,43.4,116.9,43z
		"/>
</g>
<path id="SVGID_x5F_1_x5F_" class="st1" d="M184.4,183.1c-48.4,34.4-115.5,23-149.9-25.4S11.4,42.2,59.8,7.8s115.5-23,149.9,25.4
	S232.8,148.7,184.4,183.1z"/>
<text><textPath  xlink:href="#SVGID_x5F_1_x5F_" startOffset="13823.665%">
<tspan  class="st0" style="font-family:'NimbusSanD-Ligh'; font-size:23.716px; letter-spacing:40;">respeitamos quem somos e o que sentimos</tspan></textPath>
</text>
</svg>
