<?xml version="1.0" encoding="utf-8"?>
<!-- Generator: Adobe Illustrator 23.0.1, SVG Export Plug-In . SVG Version: 6.00 Build 0)  -->
<svg version="1.1" id="Layer_1" xmlns="http://www.w3.org/2000/svg" xmlns:xlink="http://www.w3.org/1999/xlink" x="0px" y="0px"
	 viewBox="0 0 335.6 60" style="enable-background:new 0 0 335.6 60;" xml:space="preserve">
<style type="text/css">
	.st0{fill:#A27EC0;}
</style>
<path class="st0" d="M34.9,16l1.5,4.8l-22.3,7c14.6,9.6,39.5,19.5,77.9,16.8c42.7-3.1,65.4-12.6,87.4-21.8
	c19.8-8.3,38.6-16.1,70-18.8c39-3.3,66.1,9.9,82,21.6l-3,4c-15.2-11.2-41.1-23.8-78.6-20.7c-30.6,2.6-49,10.3-68.4,18.4
	c-22.4,9.4-45.5,19-89,22.2c-4.6,0.3-9,0.5-13.2,0.5c-32.5,0-54.4-9.2-67.9-18.1L18.6,55l-4.8,1.5L4.1,25.7L34.9,16z"/>
</svg>
