<svg xmlns="http://www.w3.org/2000/svg" viewBox="0 0 315.59 315.32"><title>lilit-selo</title><path d="M116.21,43.25h21.51a1.44,1.44,0,0,1,.09.43c0,3.82,0,7.65-.17,11.48a57.28,57.28,0,0,1-2.58,14.74c-1.48,4.86-3.11,9.67-4.63,14.51A80.12,80.12,0,0,0,127.2,98.6a63.18,63.18,0,0,0,.78,19.88A178.47,178.47,0,0,0,132.62,136c.25.84.49,1.69.78,2.7l-20.56.75a4.45,4.45,0,0,1-.22-.44c-1.82-6.29-3.7-12.56-5-19a75.47,75.47,0,0,1-1.38-18.67,85.56,85.56,0,0,1,3.14-17.89c1.43-5.14,2.94-10.25,4.34-15.39A63.42,63.42,0,0,0,116,54.55c.16-3.35.17-6.7.24-10C116.21,44.11,116.21,43.71,116.21,43.25Z" transform="translate(35.43 65.87)" style="fill:#bf807f"/><text transform="translate(82.71 79.76) rotate(133.55)" style="font-size:23.715999603271484px;fill:#bf807f;font-family:Montserrat-Regular, Montserrat">r</text><text transform="matrix(-0.59, 0.81, -0.81, -0.59, 74.61, 88.25)" style="font-size:23.715999603271484px;fill:#bf807f;font-family:Montserrat-Regular, Montserrat">e</text><text transform="translate(64.81 102.3) rotate(117.39)" style="font-size:23.715999603271484px;fill:#bf807f;font-family:Montserrat-Regular, Montserrat">s</text><text transform="translate(58.16 115.22) rotate(108.62)" style="font-size:23.715999603271484px;fill:#bf807f;font-family:Montserrat-Regular, Montserrat">p</text><text transform="matrix(-0.16, 0.99, -0.99, -0.16, 52.49, 132.92)" style="font-size:23.715999603271484px;fill:#bf807f;font-family:Montserrat-Regular, Montserrat">e</text><text transform="matrix(-0.04, 1, -1, -0.04, 50.19, 149.58)" style="font-size:23.715999603271484px;fill:#bf807f;font-family:Montserrat-Regular, Montserrat">i</text><text transform="translate(49.85 157.98) rotate(86.99)" style="font-size:23.715999603271484px;fill:#bf807f;font-family:Montserrat-Regular, Montserrat">t</text><text transform="translate(50.51 170.18) rotate(79.4)" style="font-size:23.715999603271484px;fill:#bf807f;font-family:Montserrat-Regular, Montserrat">a</text><text transform="translate(53.46 187) rotate(67.57)" style="font-size:23.715999603271484px;fill:#bf807f;font-family:Montserrat-Regular, Montserrat">m</text><text transform="translate(64.55 211.75) rotate(55.53)" style="font-size:23.715999603271484px;fill:#bf807f;font-family:Montserrat-Regular, Montserrat">o</text><text transform="matrix(0.68, 0.73, -0.73, 0.68, 74.98, 226.37)" style="font-size:23.715999603271484px;fill:#bf807f;font-family:Montserrat-Regular, Montserrat">s</text><text transform="matrix(0.76, 0.65, -0.65, 0.76, 84.76, 236.45)" style="font-size:23.715999603271484px;fill:#bf807f;font-family:Montserrat-Regular, Montserrat"> </text><text transform="matrix(0.83, 0.55, -0.55, 0.83, 91.26, 242.28)" style="font-size:23.715999603271484px;fill:#bf807f;font-family:Montserrat-Regular, Montserrat">q</text><text transform="translate(106.96 252.4) rotate(23.82)" style="font-size:23.715999603271484px;fill:#bf807f;font-family:Montserrat-Regular, Montserrat">u</text><text transform="translate(123.46 259.42) rotate(14.47)" style="font-size:23.715999603271484px;fill:#bf807f;font-family:Montserrat-Regular, Montserrat">e</text><text transform="translate(140.67 264.03) rotate(2.59)" style="font-size:23.715999603271484px;fill:#bf807f;font-family:Montserrat-Regular, Montserrat">m</text><text transform="translate(167.33 264.29) rotate(-6.94)" style="font-size:23.715999603271484px;fill:#bf807f;font-family:Montserrat-Regular, Montserrat"> </text><text transform="matrix(0.97, -0.22, 0.22, 0.97, 175.81, 263.29)" style="font-size:23.715999603271484px;fill:#bf807f;font-family:Montserrat-Regular, Montserrat">s</text><text transform="matrix(0.93, -0.37, 0.37, 0.93, 189.93, 259.98)" style="font-size:23.715999603271484px;fill:#bf807f;font-family:Montserrat-Regular, Montserrat">o</text><text transform="translate(207.33 253.17) rotate(-33.86)" style="font-size:23.715999603271484px;fill:#bf807f;font-family:Montserrat-Regular, Montserrat">m</text><text transform="matrix(0.7, -0.72, 0.72, 0.7, 229.43, 237.42)" style="font-size:23.715999603271484px;fill:#bf807f;font-family:Montserrat-Regular, Montserrat">o</text><text transform="translate(241.69 224.3) rotate(-54.64)" style="font-size:23.715999603271484px;fill:#bf807f;font-family:Montserrat-Regular, Montserrat">s</text><text transform="translate(249.6 212.71) rotate(-60.69)" style="font-size:23.715999603271484px;fill:#bf807f;font-family:Montserrat-Regular, Montserrat"> </text><text transform="translate(253.94 205.22) rotate(-67.48)" style="font-size:23.715999603271484px;fill:#bf807f;font-family:Montserrat-Regular, Montserrat">e</text><text transform="translate(260.03 189.55) rotate(-74.25)" style="font-size:23.715999603271484px;fill:#bf807f;font-family:Montserrat-Regular, Montserrat"> </text><text transform="translate(262.53 181.19) rotate(-81.23)" style="font-size:23.715999603271484px;fill:#bf807f;font-family:Montserrat-Regular, Montserrat">o</text><text transform="matrix(0.03, -1, 1, 0.03, 264.82, 163.72)" style="font-size:23.715999603271484px;fill:#bf807f;font-family:Montserrat-Regular, Montserrat"> </text><text transform="translate(265.25 154.99) rotate(-95.35)" style="font-size:23.715999603271484px;fill:#bf807f;font-family:Montserrat-Regular, Montserrat">q</text><text transform="matrix(-0.26, -0.97, 0.97, -0.26, 263.25, 136.42)" style="font-size:23.715999603271484px;fill:#bf807f;font-family:Montserrat-Regular, Montserrat">u</text><text transform="matrix(-0.42, -0.91, 0.91, -0.42, 258.32, 119.16)" style="font-size:23.715999603271484px;fill:#bf807f;font-family:Montserrat-Regular, Montserrat">e</text><text transform="translate(250.98 104.03) rotate(-121.4)" style="font-size:23.715999603271484px;fill:#bf807f;font-family:Montserrat-Regular, Montserrat"> </text></svg>