<?xml version="1.0" encoding="utf-8"?>
<!-- Generator: Adobe Illustrator 23.0.1, SVG Export Plug-In . SVG Version: 6.00 Build 0)  -->
<svg version="1.1" id="Camada_1" xmlns="http://www.w3.org/2000/svg" xmlns:xlink="http://www.w3.org/1999/xlink" x="0px" y="0px"
	 viewBox="0 0 63 36" style="enable-background:new 0 0 63 36;" xml:space="preserve">
<style type="text/css">
	.st0{fill:#712A35;}
</style>
<g>
	<g>
		<path class="st0" d="M3.3,34.7V1.6h7.1v33.2H3.3z"/>
		<path class="st0" d="M14.5,34.7V10.1h7.1v24.6H14.5z"/>
		<path class="st0" d="M25.8,34.7V1.6h7.1v33.2H25.8z"/>
		<path class="st0" d="M37.1,34.7V10.1h7.1v24.6H37.1z"/>
		<path class="st0" d="M56.1,34.7c-4.8,0-6.7-2.2-6.7-7.3V16.3h-2.7v-6.2h2.7V1.3h7v8.8h3.3v6.2h-3.3V26c0,1.7,0.5,2.3,2.2,2.3h1.1
			v6.4H56.1z"/>
	</g>
	<path class="st0" d="M14.8,4.8c0-1.9,1.6-3.5,3.4-3.5c1.8,0,3.4,1.6,3.4,3.5c0,1.9-1.6,3.5-3.4,3.5C16.3,8.3,14.8,6.7,14.8,4.8z"/>
	<path class="st0" d="M37.3,4.8c0-1.9,1.6-3.5,3.4-3.5c1.8,0,3.4,1.6,3.4,3.5c0,1.9-1.6,3.5-3.4,3.5C38.8,8.3,37.3,6.7,37.3,4.8z"/>
</g>
</svg>
