<?xml version="1.0" encoding="utf-8"?>
<!-- Generator: Adobe Illustrator 23.0.1, SVG Export Plug-In . SVG Version: 6.00 Build 0)  -->
<svg version="1.1" id="Layer_1" xmlns="http://www.w3.org/2000/svg" xmlns:xlink="http://www.w3.org/1999/xlink" x="0px" y="0px"
	 viewBox="0 0 244 222.7" style="enable-background:new 0 0 244 222.7;" xml:space="preserve">
<style type="text/css">
	.st0{fill:#801B28;}
</style>
<g>
	<path class="st0" d="M116.8,43.1c7.2,0,14.4,0,21.5,0c0,0.2,0.1,0.3,0.1,0.4c0,3.8,0,7.7-0.2,11.5c-0.2,5-1.1,9.9-2.6,14.7
		c-1.5,4.9-3.1,9.7-4.6,14.5c-1.5,4.6-2.6,9.3-3.2,14.2c-0.8,6.7-0.5,13.3,0.8,19.9c1.1,5.9,2.9,11.7,4.6,17.5
		c0.3,0.8,0.5,1.7,0.8,2.7c-6.9,0.3-13.7,0.5-20.6,0.8c-0.1-0.2-0.2-0.3-0.2-0.4c-1.8-6.3-3.7-12.6-5-19c-1.2-6.2-1.7-12.4-1.4-18.7
		c0.3-6.1,1.5-12,3.1-17.9c1.4-5.1,2.9-10.2,4.3-15.4c1.2-4.4,2-8.9,2.2-13.5c0.2-3.3,0.2-6.7,0.2-10
		C116.8,44,116.8,43.6,116.8,43.1z"/>
</g>
<g>
	<path class="st0" d="M51.8,24.8c1,0.9,1.8,1.7,2.6,2.4l-1.3,1.3L51.5,27l-0.1,0.1c0.7,1.4,0.6,3-0.4,4c-0.2,0.2-0.3,0.3-0.5,0.4
		l-1.4-1.4c0.2-0.1,0.3-0.3,0.5-0.5c1-1.1,0.9-2.6,0-3.9c-0.2-0.2-0.4-0.5-0.6-0.7l-4.4-4.3l1.4-1.5L51.8,24.8z"/>
	<path class="st0" d="M43.1,30.5c-2.3-1.7-4.3-1-5.6,0.7c-0.9,1.2-1.3,2.1-1.5,2.9l-1.4-0.6c0.2-0.8,0.7-2,1.8-3.5
		c2.2-2.8,5.3-3,8-0.9c2.7,2.1,3.6,5.4,1.6,8c-2.3,3-5.5,1.7-7.2,0.4c-0.3-0.3-0.6-0.5-0.7-0.7L43.1,30.5z M40.6,36.3
		c1,0.8,3,1.6,4.5-0.2c1.3-1.7,0.3-3.6-0.7-4.6L40.6,36.3z"/>
	<path class="st0" d="M33.3,38.5c-0.7,0.3-1.6,1-2.1,1.9c-0.8,1.3-0.5,2.3,0.3,2.8c0.9,0.5,1.6,0.3,2.9-0.7c1.7-1.4,3.2-1.6,4.3-0.9
		c1.6,1,2.1,3,0.9,5.1c-0.6,1-1.4,1.7-2.1,2.1l-1-1.2c0.5-0.2,1.2-0.8,1.8-1.7c0.6-1.1,0.4-2-0.4-2.5c-0.8-0.5-1.5-0.1-2.8,0.9
		c-1.7,1.3-3.1,1.7-4.5,0.8c-1.7-1-2.1-3.1-0.7-5.4c0.6-1.1,1.5-1.9,2.3-2.4L33.3,38.5z"/>
	<path class="st0" d="M32.6,50.9c1.3,0.6,2.5,1,3.5,1.4L35.4,54l-1.8-0.7l0,0c0.9,1.3,1.2,2.9,0.4,4.6c-1.1,2.5-4.1,3.5-7.3,2.1
		c-3.8-1.7-4.6-4.8-3.6-7.2c0.6-1.4,1.7-2.3,3.1-2.5l0,0l-5.7-2.5l0.8-1.9L32.6,50.9z M29,51.5c-0.3-0.1-0.6-0.2-0.8-0.3
		c-1.5-0.2-2.9,0.5-3.5,1.9c-0.9,2,0.3,3.9,2.7,5c2.1,0.9,4.4,0.6,5.3-1.4c0.6-1.3,0.2-2.9-1.1-3.9c-0.2-0.2-0.5-0.4-0.7-0.5
		L29,51.5z"/>
	<path class="st0" d="M24.5,65.1c-2.7-0.7-4.3,0.7-4.9,2.7c-0.4,1.4-0.4,2.4-0.3,3.2l-1.5-0.1c-0.1-0.8-0.1-2.1,0.3-3.9
		c1-3.4,3.8-4.8,7.1-3.9c3.3,0.9,5.4,3.6,4.5,6.9c-1,3.6-4.5,3.7-6.5,3.1c-0.4-0.1-0.7-0.2-0.9-0.3L24.5,65.1z M24.3,71.4
		c1.3,0.4,3.4,0.4,4-1.9c0.6-2-1.1-3.4-2.4-4L24.3,71.4z"/>
	<path class="st0" d="M16.3,75.9l11.3,2L27.3,80L16,78L16.3,75.9z M30.4,80.7c-0.7-0.1-1.2-0.7-1-1.5c0.1-0.7,0.8-1.1,1.5-1
		c0.7,0.1,1.2,0.8,1.1,1.5C31.8,80.5,31.1,80.9,30.4,80.7z"/>
	<path class="st0" d="M29.7,87l-3.3-0.3l-0.3,3l-1.6-0.2l0.3-3L18.7,86c-1.4-0.1-2.3,0.2-2.4,1.3c-0.1,0.5,0,1,0,1.2l-1.6-0.1
		c-0.1-0.4-0.2-1.1-0.1-1.9c0.1-1,0.5-1.7,1.1-2.2c0.7-0.5,1.7-0.6,3.1-0.5l6.2,0.6l0.2-1.8l1.6,0.2l-0.2,1.8l2.7,0.3L29.7,87z"/>
	<path class="st0" d="M14.5,99.4l1.4-0.2l0-0.1c-0.9-0.6-1.7-1.9-1.8-3.5c0-2.3,1.6-3.5,3.3-3.6c2.8,0,4.3,2.4,4.4,6.8l0.2,0
		c0.9,0,2.7-0.3,2.6-2.6c0-1.1-0.4-2.2-0.9-3l1.4-0.5c0.6,0.9,1,2.3,1.1,3.8c0,3.5-2.3,4.4-4.6,4.4l-4.3,0.1c-1,0-2,0.1-2.7,0.2
		L14.5,99.4z M20.4,99c0-2.3-0.4-4.9-2.6-4.8c-1.4,0-2,0.9-2,2c0,1.5,1,2.4,2,2.8C18,99,18.2,99,18.4,99L20.4,99z"/>
	<path class="st0" d="M23.1,105.6c1.2-0.2,2.1-0.4,3-0.7l0.3,1.8l-1.8,0.4l0,0.1c1.2,0.4,2.4,1.3,2.7,3.2c0.3,1.5-0.4,2.9-1.7,3.6
		l0,0c0.7,0.2,1.3,0.6,1.7,1c0.6,0.6,1.1,1.3,1.3,2.3c0.3,1.5-0.3,3.9-4.2,4.6l-6.6,1.2l-0.4-2l6.4-1.2c2.2-0.4,3.3-1.4,3-3.1
		c-0.2-1.2-1.2-1.9-2.3-2.1c-0.3,0-0.7,0-1.1,0l-7,1.3l-0.4-2l6.8-1.3c1.8-0.3,3-1.4,2.7-2.9c-0.2-1.3-1.4-2-2.5-2.2
		c-0.3-0.1-0.7,0-1,0l-6.8,1.3l-0.4-2L23.1,105.6z"/>
	<path class="st0" d="M28.9,136.8c-4,1.5-6.7-0.6-7.7-3.2c-1.1-2.9,0.2-6,3.6-7.2c3.6-1.4,6.6,0.2,7.7,3.2
		C33.6,132.6,32.2,135.5,28.9,136.8z M25.6,128.3c-2.4,0.9-3.6,2.9-2.9,4.8c0.7,1.9,3,2.6,5.4,1.7c1.8-0.7,3.8-2.5,2.9-4.8
		C30.1,127.7,27.6,127.5,25.6,128.3z"/>
	<path class="st0" d="M27.4,142c-0.1,0.7,0.1,1.9,0.6,2.8c0.7,1.3,1.7,1.6,2.6,1.2c0.9-0.5,1.1-1.2,0.9-2.9
		c-0.3-2.2,0.2-3.6,1.4-4.2c1.6-0.9,3.7-0.3,4.8,1.9c0.5,1,0.7,2.1,0.7,2.8l-1.6,0.3c0-0.5,0-1.4-0.5-2.4c-0.6-1.1-1.5-1.4-2.3-1
		c-0.8,0.4-0.9,1.3-0.7,2.8c0.3,2.1-0.1,3.5-1.6,4.3c-1.8,0.9-3.8,0.2-5-2.2c-0.6-1.1-0.9-2.3-0.8-3.2L27.4,142z"/>
	<path class="st0" d="M41.2,163.8L41.2,163.8c-1.3,0.2-2.8-0.2-4-1.7c-1.7-2.1-1.2-5.3,1.5-7.4c3.4-2.7,6.6-1.7,8.1,0.2
		c1.1,1.4,1.2,2.9,0.6,4l0,0l1.4-1l1.2,1.5c-0.8,0.6-1.6,1.2-2.5,1.9l-10.2,8.1l-1.3-1.6L41.2,163.8z M45.2,160.7
		c0.2-0.2,0.5-0.4,0.6-0.6c0.8-1,1-2.6,0-3.8c-1.3-1.7-3.6-1.6-5.6,0c-1.8,1.4-2.7,3.5-1.2,5.3c0.8,1.1,2.2,1.4,3.6,0.9
		c0.3-0.1,0.6-0.3,0.9-0.5L45.2,160.7z"/>
	<path class="st0" d="M54.3,175.1c-0.8,0.9-1.5,1.6-2.1,2.4l-1.4-1.3l1.2-1.4l0,0c-1,0.3-2.7,0.4-4.2-1c-1.3-1.2-2.2-3.4,0.5-6.4
		l4.6-4.9l1.5,1.4l-4.3,4.6c-1.5,1.6-2,3.1-0.6,4.4c1,1,2.4,0.9,3.3,0.5c0.3-0.1,0.6-0.4,0.9-0.6l4.8-5.1L60,169L54.3,175.1z"/>
	<path class="st0" d="M60.8,177.4c-1.6,2.3-0.8,4.3,0.9,5.5c1.2,0.9,2.1,1.2,2.9,1.3l-0.6,1.4c-0.8-0.2-2-0.6-3.5-1.6
		c-2.9-2-3.3-5.1-1.3-8c2-2.8,5.2-3.9,8-2c3.1,2.2,2,5.4,0.8,7.2c-0.2,0.3-0.5,0.6-0.6,0.8L60.8,177.4z M66.6,179.7
		c0.8-1.1,1.5-3.1-0.4-4.4c-1.7-1.2-3.6-0.2-4.6,0.9L66.6,179.7z"/>
	<path class="st0" d="M72.4,181.7c0.5-1.1,0.9-2,1.2-2.9l1.7,0.8l-0.7,1.7l0.1,0c1-0.7,2.4-1.2,4.2-0.4c1.4,0.7,2.1,2,2,3.5l0,0
		c0.6-0.4,1.2-0.7,1.8-0.8c0.8-0.2,1.7-0.1,2.6,0.3c1.4,0.6,3,2.5,1.3,6.1l-2.9,6.1l-1.8-0.9l2.8-5.9c0.9-2,0.8-3.5-0.8-4.3
		c-1.1-0.5-2.3-0.1-3,0.7c-0.2,0.2-0.4,0.5-0.6,0.9l-3,6.4l-1.8-0.9l2.9-6.2c0.8-1.7,0.6-3.2-0.8-3.9c-1.2-0.6-2.5,0-3.2,0.8
		c-0.2,0.2-0.4,0.5-0.6,0.9l-2.9,6.3l-1.8-0.9L72.4,181.7z"/>
	<path class="st0" d="M95.9,197.7c0.5,0.5,1.5,1.2,2.5,1.4c1.5,0.3,2.3-0.3,2.5-1.2c0.2-1-0.2-1.6-1.6-2.5c-1.9-1.2-2.6-2.5-2.3-3.8
		c0.4-1.8,2.2-3,4.6-2.4c1.1,0.3,2.1,0.8,2.6,1.3l-0.8,1.4c-0.4-0.4-1.1-0.9-2.1-1.2c-1.2-0.3-2,0.3-2.2,1.1
		c-0.2,0.9,0.4,1.5,1.7,2.4c1.8,1.2,2.6,2.4,2.2,4c-0.4,2-2.3,3-4.9,2.4c-1.2-0.3-2.3-0.8-3-1.5L95.9,197.7z"/>
	<path class="st0" d="M118,197.3c-0.4,4.2-3.5,5.8-6.3,5.5c-3.1-0.3-5.3-2.8-4.9-6.4c0.4-3.8,3.1-5.8,6.2-5.5
		C116.3,191.2,118.3,193.8,118,197.3z M108.9,196.5c-0.2,2.5,1,4.5,3.1,4.7c2,0.2,3.6-1.5,3.9-4.1c0.2-1.9-0.5-4.5-3-4.7
		C110.4,192.2,109.1,194.4,108.9,196.5z"/>
	<path class="st0" d="M122.2,195c-0.1-1.2-0.2-2.1-0.4-3.1l1.8-0.2l0.2,1.8l0.1,0c0.5-1.1,1.5-2.2,3.4-2.4c1.6-0.1,2.8,0.7,3.4,2
		l0,0c0.3-0.7,0.7-1.2,1.2-1.6c0.6-0.6,1.4-0.9,2.5-1c1.5-0.1,3.8,0.7,4.2,4.6l0.6,6.7l-2,0.2l-0.5-6.5c-0.2-2.2-1.1-3.5-2.8-3.3
		c-1.2,0.1-2,1-2.3,2.1c-0.1,0.3-0.1,0.7-0.1,1.1l0.6,7.1l-2,0.2l-0.6-6.9c-0.2-1.8-1.1-3.1-2.6-2.9c-1.3,0.1-2.2,1.2-2.4,2.3
		c-0.1,0.3-0.1,0.7-0.1,1l0.6,6.9l-2,0.2L122.2,195z"/>
	<path class="st0" d="M153.8,192.3c1.1,4.1-1.3,6.6-3.9,7.4c-3,0.8-5.9-0.8-6.8-4.3c-1-3.7,0.9-6.5,3.9-7.4
		C150.1,187.2,152.9,188.9,153.8,192.3z M145,194.8c0.7,2.4,2.5,3.9,4.5,3.4c1.9-0.5,2.9-2.7,2.2-5.2c-0.5-1.9-2.1-4-4.5-3.4
		C144.9,190.2,144.4,192.7,145,194.8z"/>
	<path class="st0" d="M158.8,194.4c0.7,0.1,1.9,0.1,2.9-0.3c1.4-0.6,1.8-1.5,1.4-2.4c-0.4-0.9-1.1-1.2-2.8-1.1
		c-2.2,0.1-3.5-0.6-4-1.9c-0.7-1.7,0.1-3.7,2.4-4.6c1.1-0.4,2.1-0.5,2.9-0.4l0.1,1.6c-0.5-0.1-1.4-0.1-2.4,0.3
		c-1.1,0.5-1.5,1.4-1.2,2.2c0.4,0.9,1.2,1,2.8,1c2.1,0,3.5,0.5,4.1,2.1c0.8,1.9-0.2,3.8-2.7,4.8c-1.2,0.5-2.4,0.6-3.3,0.5
		L158.8,194.4z"/>
	<path class="st0" d="M174.3,183.3c1.6,2.4,3.7,2.4,5.5,1.2c1.3-0.8,1.9-1.5,2.4-2.2l1.1,1.1c-0.4,0.7-1.3,1.7-2.8,2.7
		c-3,1.9-6,1.1-7.9-1.8c-1.9-2.9-1.6-6.3,1.2-8.1c3.2-2,5.8,0.2,6.9,2c0.2,0.4,0.4,0.7,0.5,0.9L174.3,183.3z M178.7,178.8
		c-0.7-1.1-2.3-2.6-4.3-1.3c-1.8,1.1-1.5,3.3-0.9,4.6L178.7,178.8z"/>
	<path class="st0" d="M196.5,164.9c2.9,3.1,2.1,6.4,0.1,8.4c-2.2,2.1-5.5,2.2-8.1-0.5c-2.7-2.8-2.4-6.1-0.1-8.3
		C190.8,162.2,194.1,162.4,196.5,164.9z M190.1,171.3c1.7,1.8,4.1,2.2,5.6,0.8c1.4-1.4,1.2-3.8-0.6-5.6c-1.3-1.4-3.8-2.5-5.5-0.8
		C187.7,167.4,188.5,169.7,190.1,171.3z"/>
	<path class="st0" d="M211,152.7L211,152.7c0.6,1.2,0.6,2.8-0.5,4.3c-1.5,2.2-4.7,2.7-7.5,0.7c-3.5-2.4-3.6-5.8-2.2-7.8
		c1-1.5,2.4-2,3.6-1.8l0,0l-1.4-1l1.1-1.6c0.8,0.6,1.6,1.2,2.6,1.8l10.8,7.3l-1.2,1.7L211,152.7z M206.8,149.9
		c-0.2-0.2-0.5-0.3-0.8-0.4c-1.2-0.5-2.8-0.2-3.6,1.1c-1.2,1.8-0.4,3.9,1.7,5.3c1.9,1.3,4.1,1.5,5.4-0.4c0.8-1.1,0.7-2.5-0.2-3.8
		c-0.2-0.2-0.5-0.5-0.7-0.7L206.8,149.9z"/>
	<path class="st0" d="M218,136.9c1.1,0.5,2,1,2.9,1.3l-0.8,1.7l-1.7-0.7l0,0c0.6,0.9,1.2,2.5,0.3,4.3c-0.8,1.6-2.6,3.1-6.3,1.4
		l-6-2.9l0.9-1.9l5.7,2.8c2,1,3.6,1,4.4-0.7c0.6-1.3,0.2-2.6-0.5-3.3c-0.2-0.2-0.5-0.5-0.9-0.6l-6.3-3.1l0.9-1.9L218,136.9z"/>
	<path class="st0" d="M218.2,130.1c2.7,0.8,4.4-0.5,5-2.5c0.5-1.4,0.5-2.4,0.4-3.2l1.5,0.1c0.1,0.8,0.1,2.1-0.5,3.9
		c-1.1,3.4-4,4.7-7.2,3.6c-3.3-1.1-5.3-3.9-4.2-7c1.2-3.6,4.6-3.5,6.6-2.8c0.4,0.1,0.7,0.3,0.9,0.4L218.2,130.1z M218.7,123.8
		c-1.3-0.4-3.4-0.5-4.1,1.7c-0.7,2,0.9,3.5,2.2,4.1L218.7,123.8z"/>
	<path class="st0" d="M226,112.9c0.5-0.6,1.1-1.6,1.2-2.6c0.2-1.5-0.5-2.3-1.4-2.4c-1-0.1-1.6,0.4-2.4,1.8c-1,1.9-2.3,2.8-3.6,2.6
		c-1.8-0.2-3.1-1.9-2.8-4.4c0.2-1.2,0.6-2.1,1.1-2.7l1.4,0.7c-0.3,0.4-0.8,1.2-1,2.2c-0.2,1.2,0.4,2,1.3,2.1
		c0.9,0.1,1.5-0.5,2.2-1.9c1-1.9,2.1-2.7,3.8-2.5c2,0.3,3.2,2,2.8,4.7c-0.2,1.2-0.6,2.4-1.2,3.1L226,112.9z"/>
	<path class="st0" d="M224.1,100.2c2.8,0,4-1.8,4-3.9c0-1.5-0.2-2.4-0.5-3.2l1.5-0.3c0.3,0.7,0.7,2,0.6,3.8
		c-0.1,3.5-2.4,5.6-5.9,5.5c-3.5-0.1-6.2-2.1-6.1-5.5c0.1-3.7,3.4-4.7,5.5-4.7c0.4,0,0.8,0.1,1,0.1L224.1,100.2z M222.7,94
		c-1.3,0-3.4,0.5-3.4,2.8c0,2.1,1.9,3.1,3.3,3.3L222.7,94z"/>
	<path class="st0" d="M221,88.2c-1.2,0.1-2.1,0.3-3.1,0.5l-0.2-1.8l1.9-0.3l0,0c-1.2-0.4-2.4-1.6-2.6-3.5c-0.2-1.6,0.4-4.1,4.4-4.6
		l6.8-0.8l0.3,2.1l-6.6,0.8c-1.8,0.2-3.3,1.1-3,3c0.2,1.4,1.3,2.3,2.5,2.5c0.3,0.1,0.6,0.1,1,0l6.9-0.8l0.3,2.1L221,88.2z"/>
	<path class="st0" d="M212,73.2l3.2-0.8l-0.7-2.9l1.5-0.4l0.7,2.9l6-1.5c1.4-0.3,2.1-0.9,1.8-2c-0.1-0.5-0.3-0.9-0.4-1.1l1.5-0.5
		c0.3,0.4,0.5,0.9,0.7,1.7c0.2,0.9,0.1,1.8-0.3,2.4c-0.5,0.7-1.4,1.2-2.7,1.5l-6.1,1.5l0.4,1.7l-1.5,0.4l-0.4-1.7l-2.7,0.7L212,73.2
		z"/>
	<path class="st0" d="M209.8,65.3c0.7-0.2,1.4,0.1,1.6,0.9c0.2,0.7-0.1,1.4-0.8,1.6c-0.7,0.2-1.4-0.1-1.6-0.8
		C208.7,66.2,209.1,65.5,209.8,65.3z M224.5,62.9l-10.9,3.6l-0.7-2l10.9-3.6L224.5,62.9z"/>
	<path class="st0" d="M214.6,59c-1.1,0.5-1.9,1-2.7,1.5l-0.8-1.6l1.6-0.9l0-0.1c-1.3-0.1-2.6-0.6-3.5-2.3c-0.7-1.4-0.4-2.9,0.6-3.9
		l0,0c-0.7,0-1.4-0.2-1.9-0.5c-0.8-0.4-1.4-0.9-1.8-1.9c-0.7-1.4-0.8-3.8,2.8-5.6l6.1-3l0.9,1.8l-5.8,2.9c-2,1-2.8,2.3-2.1,3.8
		c0.5,1.1,1.7,1.5,2.8,1.4c0.3,0,0.7-0.1,1-0.3L218,47l0.9,1.8l-6.2,3.1c-1.6,0.8-2.5,2.1-1.8,3.5c0.6,1.2,1.9,1.6,3,1.4
		c0.3,0,0.7-0.1,1-0.3l6.2-3.1l0.9,1.8L214.6,59z"/>
	<path class="st0" d="M200.5,30.6c3.4-2.5,6.7-1.3,8.3,1c1.8,2.5,1.4,5.8-1.5,7.9c-3.1,2.3-6.4,1.6-8.3-1
		C197,35.9,197.6,32.7,200.5,30.6z M206,37.9c2-1.5,2.7-3.8,1.5-5.4c-1.2-1.6-3.6-1.7-5.7-0.2c-1.6,1.2-3,3.4-1.5,5.4
		C201.7,39.6,204.2,39.1,206,37.9z"/>
	<path class="st0" d="M200.6,25.2c-0.1-0.7-0.6-1.8-1.3-2.6c-1-1.1-2.1-1.1-2.8-0.4c-0.7,0.7-0.7,1.5-0.1,3c0.9,2,0.7,3.5-0.3,4.4
		c-1.3,1.3-3.5,1.2-5.2-0.6c-0.8-0.8-1.3-1.8-1.4-2.5l1.5-0.7c0.1,0.5,0.4,1.4,1.1,2.2c0.9,0.9,1.8,0.9,2.5,0.3
		c0.7-0.7,0.5-1.4-0.1-2.9c-0.8-2-0.8-3.4,0.4-4.6c1.5-1.4,3.6-1.2,5.5,0.7c0.9,0.9,1.4,2,1.7,2.9L200.6,25.2z"/>
</g>
</svg>
